<svg width="17" height="17" viewBox="0 0 17 17" fill="none" xmlns="http://www.w3.org/2000/svg">
<path d="M12.8533 0.333252H3.81333C3.31256 0.333252 2.81669 0.431887 2.35403 0.623525C1.89138 0.815163 1.471 1.09605 1.1169 1.45015C0.401761 2.16529 0 3.13523 0 4.14658V13.1866C0 14.1979 0.401761 15.1679 1.1169 15.883C1.471 16.2371 1.89138 16.518 2.35403 16.7096C2.81669 16.9013 3.31256 16.9999 3.81333 16.9999H12.8533C13.8647 16.9999 14.8346 16.5982 15.5498 15.883C16.2649 15.1679 16.6667 14.1979 16.6667 13.1866V4.14658C16.6667 3.13523 16.2649 2.16529 15.5498 1.45015C14.8346 0.735013 13.8647 0.333252 12.8533 0.333252ZM7.33333 13.9266L1.73333 8.83992L2.94667 7.50659L7.16667 11.3333L13.9067 3.33325L15.28 4.49992L7.33333 13.9266Z" fill="#25315B"/>
</svg>
