<svg width="16" height="20" viewBox="0 0 16 20" fill="none" xmlns="http://www.w3.org/2000/svg">
<path d="M8 0.833252L14.8475 2.35492C15.0326 2.39606 15.198 2.49906 15.3167 2.64692C15.4353 2.79479 15.5 2.97868 15.5 3.16825V11.4908C15.4999 12.3139 15.2967 13.1242 14.9082 13.8499C14.5198 14.5756 13.9582 15.1942 13.2733 15.6508L8 19.1666L2.72667 15.6508C2.04189 15.1943 1.48038 14.5758 1.09196 13.8503C0.70353 13.1248 0.500197 12.3146 0.5 11.4916V3.16825C0.500033 2.97868 0.564698 2.79479 0.683325 2.64692C0.801951 2.49906 0.967447 2.39606 1.1525 2.35492L8 0.833252ZM8 5.83325C7.63312 5.83327 7.2765 5.95434 6.98544 6.17768C6.69439 6.40103 6.48515 6.71417 6.3902 7.06855C6.29524 7.42292 6.31987 7.79873 6.46026 8.13768C6.60065 8.47664 6.84895 8.7598 7.16667 8.94325V12.4999H8.83333L8.83417 8.94325C9.15194 8.75976 9.40028 8.47653 9.54066 8.13749C9.68103 7.79845 9.70559 7.42257 9.61053 7.06815C9.51546 6.71372 9.30609 6.40058 9.01489 6.1773C8.72369 5.95402 8.36695 5.83308 8 5.83325Z" fill="#25315B"/>
</svg>
