<svg width="281" height="281" viewBox="0 0 281 281" fill="none" xmlns="http://www.w3.org/2000/svg">
<path opacity="0.2" d="M56.7302 53.9701L43.1802 40.3501C68.7367 15.4455 102.879 1.30251 138.56 0.840088V20.0901C107.961 20.5363 78.689 32.6558 56.7302 53.9701Z" fill="#64BDFF" stroke="white" stroke-width="0.5"/>
<path opacity="0.2" d="M142.5 0.840088C178.195 1.29818 212.35 15.4493 237.91 40.3701L224.32 53.9901C202.363 32.6761 173.097 20.5502 142.5 20.0901V0.840088Z" fill="#B97EFF" stroke="white" stroke-width="0.5"/>
<path opacity="0.2" d="M227.18 56.8099L240.77 43.1899C265.683 68.7548 279.832 102.907 280.3 138.6H261.05C260.585 108.019 248.471 78.7666 227.18 56.8099Z" fill="#FBF681" stroke="white" stroke-width="0.5"/>
<path opacity="0.2" d="M261 142.59H280.26C279.794 178.284 265.644 212.436 240.73 238L227.18 224.46C248.476 202.478 260.574 173.193 261 142.59Z" fill="#FF71D8" stroke="white" stroke-width="0.5"/>
<path opacity="0.2" d="M224.3 227.22L237.91 240.82C212.348 265.739 178.195 279.893 142.5 280.36V261.1C173.087 260.639 202.345 248.521 224.3 227.22Z" fill="#81FFB3" stroke="white" stroke-width="0.5"/>
<path opacity="0.2" d="M56.6999 227.24C78.6628 248.54 107.929 260.651 138.52 261.1V280.36C102.825 279.9 68.6707 265.749 43.1099 240.83L56.6999 227.24Z" fill="#FE6D6D" stroke="white" stroke-width="0.5"/>
<path opacity="0.2" d="M20.02 142.59C20.4737 173.174 32.5888 202.43 53.89 224.38L40.3 237.97C15.3855 212.418 1.23475 178.275 0.77002 142.59H20.02Z" fill="#69E4FF" stroke="white" stroke-width="0.5"/>
<path opacity="0.2" d="M53.89 56.8102C32.594 78.764 20.4797 108.018 20.02 138.6H0.77002C1.23066 102.909 15.3816 68.7574 40.3 43.2002L53.89 56.8102Z" fill="#FFA876" stroke="white" stroke-width="0.5"/>
<path d="M131.87 129.13L114.3 111.56C120.975 105.528 129.534 101.995 138.52 101.56V126.41C136.107 126.731 133.816 127.668 131.87 129.13Z" fill="#64BDFF" stroke="white" stroke-width="0.5"/>
<path d="M113.95 111.2L92.6201 89.8801C105.056 78.1075 121.402 71.3415 138.52 70.8801V101.04C129.402 101.483 120.719 105.074 113.95 111.2Z" fill="#64BDFF" stroke="white" stroke-width="0.5"/>
<path opacity="0.2" d="M92.2997 89.5301L73.0098 70.2501C90.6437 53.2676 114.042 43.5738 138.52 43.1101V70.3701C121.277 70.837 104.816 77.6609 92.2997 89.5301Z" fill="#64BDFF" stroke="white" stroke-width="0.5"/>
<path opacity="0.2" d="M72.6301 69.8901L57.0801 54.3401C78.9385 33.1298 108.066 21.0589 138.52 20.5901V42.5901C113.9 43.0539 90.364 52.8054 72.6301 69.8901Z" fill="#64BDFF" stroke="white" stroke-width="0.5"/>
<path d="M142.5 126.37V101.53C151.486 101.965 160.045 105.498 166.72 111.53L149.18 129.13C147.231 127.645 144.929 126.694 142.5 126.37Z" fill="#B97EFF" stroke="white" stroke-width="0.5"/>
<path d="M142.5 42.6001V20.6001C172.954 21.0669 202.083 33.1381 223.94 54.3501L208.39 69.9001C190.654 52.8179 167.12 43.0669 142.5 42.6001Z" fill="#B97EFF" stroke="white" stroke-width="0.5"/>
<path d="M142.53 70.3701V43.1101C167.008 43.5719 190.407 53.2659 208.04 70.2501L188.76 89.5301C176.237 77.6651 159.774 70.842 142.53 70.3701Z" fill="#B97EFF" stroke="white" stroke-width="0.5"/>
<path d="M142.5 101.03V70.8701C159.618 71.3314 175.964 78.0975 188.4 89.8701L167.08 111.19C160.31 105.06 151.622 101.469 142.5 101.03Z" fill="#B97EFF" stroke="white" stroke-width="0.5"/>
<path d="M151.98 131.96L169.55 114.39C175.575 121.066 179.107 129.619 179.55 138.6H154.7C154.377 136.19 153.441 133.904 151.98 131.96Z" fill="#FBF682" stroke="white" stroke-width="0.5"/>
<path opacity="0.2" d="M169.92 114.03L191.22 92.7402C202.989 105.163 209.755 121.494 210.22 138.6H180.06C179.628 129.483 176.044 120.798 169.92 114.03Z" fill="#FBF681" stroke="white" stroke-width="0.5"/>
<path opacity="0.2" d="M191.58 92.3801L210.86 73.1001C227.839 90.7326 237.532 114.127 238 138.6H210.76C210.28 121.356 203.45 104.897 191.58 92.3801Z" fill="#FBF681" stroke="white" stroke-width="0.5"/>
<path opacity="0.2" d="M211.18 72.7202L226.74 57.1702C247.938 79.0296 259.998 108.153 260.46 138.6H238.46C238.002 113.985 228.257 90.4531 211.18 72.7202Z" fill="#FBF681" stroke="white" stroke-width="0.5"/>
<path d="M154.73 142.59H179.58C179.14 151.575 175.607 160.132 169.58 166.81L152.01 149.24C153.472 147.293 154.409 145.003 154.73 142.59Z" fill="#FF71D8" stroke="white" stroke-width="0.5"/>
<path opacity="0.2" d="M238.5 142.59H260.5C260.041 173.04 247.981 202.167 226.78 224.03L211.23 208.46C228.305 190.73 238.046 167.201 238.5 142.59Z" fill="#FF71D8" stroke="white" stroke-width="0.5"/>
<path d="M210.76 142.59H238C237.541 167.077 227.847 190.487 210.86 208.13L191.58 188.84C203.457 176.315 210.287 159.844 210.76 142.59Z" fill="#FF71D8" stroke="white" stroke-width="0.5"/>
<path d="M180.1 142.59H210.26C209.803 159.71 203.036 176.056 191.26 188.49L169.93 167.16C176.067 160.397 179.662 151.712 180.1 142.59Z" fill="#FF71D8" stroke="white" stroke-width="0.5"/>
<path opacity="0.2" d="M208.39 211.3L223.94 226.85C202.086 248.066 172.955 260.138 142.5 260.6V238.6C167.121 238.137 190.657 228.386 208.39 211.3Z" fill="#81FFB3" stroke="white" stroke-width="0.5"/>
<path opacity="0.2" d="M188.73 191.66L208.04 210.95C190.396 227.935 166.987 237.629 142.5 238.09V210.82C159.744 210.348 176.207 203.525 188.73 191.66Z" fill="#81FFB3" stroke="white" stroke-width="0.5"/>
<path d="M167.11 169.99L188.4 191.31C175.972 203.078 159.638 209.843 142.53 210.31V180.16C151.653 179.718 160.341 176.124 167.11 169.99Z" fill="#81FFB3" stroke="white" stroke-width="0.5"/>
<path d="M149.18 152.06L166.75 169.64C160.071 175.667 151.515 179.2 142.53 179.64V154.79C144.945 154.47 147.236 153.529 149.18 152.06Z" fill="#81FFB3" stroke="white" stroke-width="0.5"/>
<path d="M131.87 152.07C133.813 153.543 136.104 154.49 138.52 154.82V179.66C129.533 179.226 120.975 175.693 114.3 169.66L131.87 152.07Z" fill="#FE6D6D" stroke="white" stroke-width="0.5"/>
<path opacity="0.2" d="M72.6301 211.32C90.3703 228.391 113.904 238.131 138.52 238.59V260.59C108.069 260.127 78.9416 248.063 57.0801 226.86L72.6301 211.32Z" fill="#FE6D6D" stroke="white" stroke-width="0.5"/>
<path d="M92.27 191.66C104.793 203.538 121.267 210.363 138.52 210.82V238.09C114.034 237.627 90.6253 227.934 72.98 210.95L92.27 191.66Z" fill="#FE6D6D" stroke="white" stroke-width="0.5"/>
<path d="M113.95 169.99C120.715 176.124 129.399 179.718 138.52 180.16V210.32C121.412 209.853 105.077 203.088 92.6499 191.32L113.95 169.99Z" fill="#FE6D6D" stroke="white" stroke-width="0.5"/>
<path opacity="0.2" d="M42.52 142.59C42.9872 167.202 52.7344 190.729 69.81 208.46L54.24 224.01C33.0399 202.148 20.9798 173.02 20.52 142.57L42.52 142.59Z" fill="#69E4FF" stroke="white" stroke-width="0.5"/>
<path opacity="0.2" d="M70.2601 142.59C70.7326 159.844 77.5632 176.315 89.4401 188.84L70.1801 208.13C53.1965 190.485 43.5032 167.077 43.04 142.59H70.2601Z" fill="#69E4FF" stroke="white" stroke-width="0.5"/>
<path d="M111.12 167.16L89.7998 188.46C78.0256 176.025 71.2593 159.679 70.7998 142.56H100.96C101.393 151.69 104.984 160.385 111.12 167.16Z" fill="#69E4FF" stroke="white" stroke-width="0.5"/>
<path d="M126.29 142.59C126.619 145.008 127.57 147.3 129.05 149.24L111.48 166.81C105.444 160.137 101.91 151.577 101.48 142.59H126.29Z" fill="#69E4FF" stroke="white" stroke-width="0.5"/>
<path d="M69.81 72.7202C52.7296 90.4521 42.9817 113.984 42.52 138.6H20.52C20.9813 108.153 33.0414 79.0296 54.24 57.1702L69.81 72.7202Z" fill="#FFA876" stroke="white" stroke-width="0.5"/>
<path d="M89.45 92.3801C77.5763 104.896 70.7426 121.355 70.26 138.6H43.02C43.4891 114.114 53.1898 90.7087 70.18 73.0701L89.45 92.3801Z" fill="#FFA876" stroke="white" stroke-width="0.5"/>
<path d="M111.12 114.03C104.988 120.796 101.393 129.48 100.95 138.6H70.7598C71.229 121.495 77.9946 105.165 89.7598 92.7402L111.12 114.03Z" fill="#FFA876" stroke="white" stroke-width="0.5"/>
<path d="M129.05 131.96C127.572 133.898 126.621 136.186 126.29 138.6H101.45C101.88 129.616 105.414 121.059 111.45 114.39L129.05 131.96Z" fill="#FFA876" stroke="white" stroke-width="0.5"/>
</svg>
