<svg width="16" height="16" viewBox="0 0 16 16" fill="none" xmlns="http://www.w3.org/2000/svg">
<path d="M8.20361 16C9.36272 16 10.3029 15.1047 10.3029 14H6.1043C6.1043 15.1047 7.04451 16 8.20361 16ZM15.2721 11.3216C14.6381 10.6728 13.4517 9.69687 13.4517 6.5C13.4517 4.07188 11.6639 2.12812 9.25311 1.65125V1C9.25311 0.447812 8.78317 0 8.20361 0C7.62406 0 7.15412 0.447812 7.15412 1V1.65125C4.74337 2.12812 2.95549 4.07188 2.95549 6.5C2.95549 9.69687 1.76915 10.6728 1.13512 11.3216C0.938215 11.5231 0.850921 11.7641 0.852562 12C0.856172 12.5125 1.27853 13 1.90599 13H14.5012C15.1287 13 15.5514 12.5125 15.5547 12C15.5563 11.7641 15.469 11.5228 15.2721 11.3216Z" fill="#25315B"/>
</svg>
